<svg width="441" height="101" viewBox="0 0 441 101" fill="none" xmlns="http://www.w3.org/2000/svg">
<path d="M0.792175 67.4713H24.6208C43.3625 67.4713 59.159 57.208 59.159 35.5212C59.159 15.3516 43.9872 4.99909 22.4789 4.99909H0.792175V5.17758C5.07598 6.9625 5.8792 10.5323 5.8792 16.4226V56.0478C5.8792 61.938 5.07598 65.5079 0.792175 67.2928V67.4713ZM13.9113 65.1509V7.31948H21.6757C37.8293 7.31948 50.3237 16.6903 50.3237 35.5212C50.3237 57.208 37.74 65.1509 23.0144 65.1509H13.9113Z" fill="black"/>
<path d="M106.399 64.2584C105.685 64.7046 104.704 64.9724 103.722 64.9724C99.9737 64.9724 98.0996 62.4735 98.0996 57.565C98.0996 52.121 98.3673 46.2307 98.3673 38.2878C98.3673 27.6676 91.4061 23.2053 79.8041 23.2053C70.6118 23.2053 64.3646 28.3815 64.3646 34.1825C64.3646 38.2878 67.2205 40.6975 70.8795 40.6975C73.4677 40.6975 75.5203 39.3588 75.9666 36.6814C75.6096 36.8599 75.1634 36.9491 74.8064 36.9491C72.3075 36.9491 70.701 34.9857 70.701 32.2191C70.701 28.2923 73.1999 24.9009 79.8041 24.9009C87.1223 24.9009 90.1567 30.4342 90.1567 36.9491V42.0362L83.374 43.2856C72.7537 45.249 62.6689 47.4802 62.6689 57.0295C62.6689 64.5261 68.2914 68.096 75.3418 68.096C82.8385 68.096 89.2642 62.295 90.2459 56.0478C90.2459 57.0295 90.4244 59.9746 90.4244 60.3316C90.8706 65.0616 93.548 68.1852 98.3673 68.1852C102.026 68.1852 104.882 66.5788 106.399 64.4369V64.2584ZM90.1567 43.7318L89.9782 51.1393C89.7997 59.4391 84.2664 64.1692 78.6439 64.1692C74.3601 64.1692 71.058 62.0273 71.058 56.137C71.058 49.8006 75.3418 46.5877 84.1772 44.892L90.1567 43.7318Z" fill="black"/>
<path d="M147.181 68.3637H147.359L161.103 34.004C163.691 27.6676 165.03 26.3289 167.975 24.2762V24.0977H155.391V24.2762C157.979 25.1687 159.14 27.2213 159.14 29.7202C159.14 31.1482 158.783 32.7546 158.158 34.361L149.59 56.2263L141.023 33.7363C140.309 31.6836 139.506 29.5417 139.506 28.203C139.506 26.4181 139.952 25.2579 142.183 24.2762V24.0977H126.476V24.2762C129.421 26.3289 130.581 27.4891 133.258 33.7363L133.705 34.8072L124.691 56.3155L115.32 33.7363C114.606 31.6836 113.803 29.5417 113.803 28.203C113.803 26.4181 114.249 25.2579 116.48 24.2762V24.0977H100.505V24.2762C103.45 26.3289 104.61 27.4891 107.288 33.7363L122.013 68.3637H122.192L135.043 38.0201L147.181 68.3637Z" fill="black"/>
<path d="M166.912 24.0977V24.2762C171.196 26.0611 172.446 28.7385 172.446 33.8255V57.7435C172.446 63.6337 171.642 65.5079 167.359 67.2928V67.4713H185.386V67.2928C181.102 65.5079 180.299 63.6337 180.299 57.7435V44.6243C180.299 34.4503 185.476 27.6676 192.615 27.6676C199.666 27.6676 202.075 33.1116 202.075 39.448V57.7435C202.075 63.6337 201.272 65.5079 196.988 67.2928V67.4713H215.016V67.2928C210.732 65.5079 209.929 63.6337 209.929 57.7435V38.7341C209.929 28.4708 204.217 23.2053 196.007 23.2053C188.331 23.2053 182.709 28.1138 180.299 36.5029V24.0977H166.912Z" fill="black"/>
<path d="M232.954 4.99909V5.17758C237.238 6.9625 238.041 10.5323 238.041 16.4226V56.0478C238.041 61.938 237.238 65.5079 232.954 67.2928V67.4713H280.7L283.556 51.05H283.378C278.648 60.5101 272.847 65.1509 262.851 65.1509H246.073V36.9491H258.657C265.885 36.9491 268.117 37.3061 271.151 45.5168H271.329V24.7224H271.151C268.117 33.0223 265.885 34.6287 258.657 34.6287H246.073V7.31948H260.977C270.973 7.31948 276.06 11.3356 280.7 19.8139H280.879L277.844 4.37437C276.863 4.90984 275.167 4.99909 273.561 4.99909H232.954Z" fill="black"/>
<path d="M285.484 24.0977V24.2762C289.768 26.0611 291.017 28.7385 291.017 33.8255V57.7435C291.017 63.6337 290.214 65.5079 285.93 67.2928V67.4713H303.958V67.2928C299.674 65.5079 298.871 63.6337 298.871 57.7435V44.6243C298.871 34.4503 304.047 27.6676 311.187 27.6676C318.237 27.6676 320.647 33.1116 320.647 39.448V57.7435C320.647 63.6337 319.844 65.5079 315.56 67.2928V67.4713H333.588V67.2928C329.304 65.5079 328.501 63.6337 328.501 57.7435V38.7341C328.501 28.4708 322.789 23.2053 314.578 23.2053C306.903 23.2053 301.281 28.1138 298.871 36.5029V24.0977H285.484Z" fill="black"/>
<path d="M354.721 24.7224C360.879 24.7224 363.824 30.7019 363.824 37.7524C363.824 44.8028 360.879 50.7823 354.721 50.7823C348.652 50.7823 345.707 44.8028 345.707 37.7524C345.707 30.7019 348.652 24.7224 354.721 24.7224ZM379.263 72.2906C379.263 64.6154 373.284 60.1531 362.485 60.1531H348.295C343.744 60.1531 341.334 58.9037 341.334 55.8693C341.334 53.3704 343.833 51.5855 346.153 50.7823C348.563 51.764 351.329 52.2994 354.721 52.2994C365.966 52.2994 372.124 45.7845 372.124 37.7524C372.124 34.8072 371.321 32.0406 369.625 29.7202C370.607 28.4708 372.302 26.8643 374.355 26.8643C376.408 26.8643 377.568 28.0245 377.568 29.7202C377.568 31.2374 377.121 32.1299 375.961 32.9331V33.1116C379.263 33.1116 383.628 30.8734 383.279 27.2213C382.993 24.2219 381.227 22.1343 377.478 22.1343C373.373 22.1343 370.785 26.2396 369.089 29.0063C366.055 25.3472 361.057 23.2053 354.721 23.2053C343.565 23.2053 337.407 29.7202 337.407 37.7524C337.407 42.7501 339.995 47.4802 344.904 50.1575C340.531 51.3177 336.247 54.2629 336.247 58.7252C336.247 64.1692 340.977 66.8465 345.975 67.382C338.389 68.2745 333.212 71.6658 333.212 77.0206C333.212 85.142 344.725 88.4441 354.364 88.4441C368.018 88.4441 379.263 82.2861 379.263 72.2906ZM354.275 86.7484C346.332 86.7484 340.352 82.8216 340.352 76.4851C340.352 70.4164 344.636 67.4713 351.776 67.4713H361.593C368.643 67.4713 372.391 69.9701 372.391 75.9496C372.391 82.4646 365.52 86.7484 354.275 86.7484Z" fill="black"/>
<path d="M402.01 23.2053C390.765 23.2053 381.216 32.3976 381.216 45.7845C381.216 60.0638 390.854 68.3637 402.278 68.3637C412.095 68.3637 419.056 63.009 420.752 53.4596L420.216 53.2812C417.628 60.6886 411.916 64.2584 405.223 64.2584C395.227 64.2584 389.248 55.8693 389.248 43.9996H420.484C420.484 31.7729 414.861 23.2053 402.01 23.2053ZM389.426 42.1254C389.872 31.5944 395.584 24.9902 401.921 24.9902C410.399 24.9902 412.005 33.0223 412.005 42.1254H389.426Z" fill="black"/>
<path d="M435.913 0.626038H422.526V0.804528C426.81 2.58945 428.059 5.26683 428.059 10.3538V57.7435C428.059 63.6337 427.256 65.5079 422.972 67.2928V67.4713H441V67.2928C436.716 65.5079 435.913 63.6337 435.913 57.7435V0.626038Z" fill="black"/>
<path d="M130.45 100.195H138.23V98.5029H132.421V88.1926H130.45V100.195Z" fill="black" fill-opacity="0.75"/>
<path d="M139.802 100.195H141.791L142.82 97.2817H147.949L148.978 100.195H151.054L146.588 88.1926H144.268L139.802 100.195ZM145.437 90.1465L147.373 95.6418H143.413L145.367 90.1465H145.437Z" fill="black" fill-opacity="0.75"/>
<path d="M153.218 100.195H155.189L155.12 91.577H155.189L161.54 100.195H163.354V88.1926H161.365L161.435 96.8456H161.365L155.05 88.1926H153.218V100.195Z" fill="black" fill-opacity="0.75"/>
<path d="M166.809 100.195H170.804C174.973 100.195 177.136 97.6829 177.136 94.1938C177.136 90.7047 174.973 88.1926 170.804 88.1926H166.809V100.195ZM170.716 89.8673C173.909 89.8673 175.078 91.8736 175.078 94.1938C175.078 96.5141 173.909 98.5203 170.716 98.5203H168.78V89.8673H170.716Z" fill="black" fill-opacity="0.75"/>
<path d="M179.16 96.7758C179.16 98.9739 180.852 100.404 183.905 100.404C187.01 100.404 188.79 98.9041 188.79 96.6885C188.79 91.9085 181.323 94.2985 181.323 91.3502C181.323 90.1465 182.457 89.5184 183.922 89.5184C185.388 89.5184 186.487 90.1988 186.487 91.42H188.423C188.423 89.2916 186.609 87.9832 183.922 87.9832C181.131 87.9832 179.352 89.4835 179.352 91.5421C179.352 96.235 186.766 93.8798 186.766 96.8456C186.766 98.1191 185.702 98.8692 183.905 98.8692C182.178 98.8692 181.114 98.0144 181.114 96.7758H179.16Z" fill="black" fill-opacity="0.75"/>
<path d="M190.872 94.1938C190.872 97.8051 193.175 100.404 196.699 100.404C199.595 100.404 201.497 98.782 201.968 96.3222H199.962C199.543 97.84 198.566 98.6599 196.717 98.6599C194.449 98.6599 192.914 96.7758 192.914 94.1938C192.914 91.5596 194.431 89.7278 196.769 89.7278C198.479 89.7278 199.543 90.5477 199.962 92.0655H201.968C201.497 89.6057 199.648 87.9832 196.769 87.9832C193.228 87.9832 190.872 90.6349 190.872 94.1938Z" fill="black" fill-opacity="0.75"/>
<path d="M203.393 100.195H205.382L206.411 97.2817H211.54L212.569 100.195H214.645L210.179 88.1926H207.859L203.393 100.195ZM209.028 90.1465L210.964 95.6418H207.004L208.958 90.1465H209.028Z" fill="black" fill-opacity="0.75"/>
<path d="M216.809 100.195H218.78V96.1303H221.676C224.468 96.1303 226.02 94.4032 226.02 92.1004C226.02 89.7976 224.468 88.1926 221.676 88.1926H216.809V100.195ZM221.589 89.8324C223.229 89.8324 224.031 90.7745 224.031 92.1178C224.031 93.4437 223.229 94.5079 221.589 94.5079H218.78V89.8324H221.589Z" fill="black" fill-opacity="0.75"/>
<path d="M228.764 100.195H237.33V98.5203H230.735V94.8917H235.899V93.2692H230.735V89.8673H237.173V88.1926H228.764V100.195Z" fill="black" fill-opacity="0.75"/>
<path d="M244.564 100.195H248.56C252.729 100.195 254.892 97.6829 254.892 94.1938C254.892 90.7047 252.729 88.1926 248.56 88.1926H244.564V100.195ZM248.472 89.8673C251.665 89.8673 252.834 91.8736 252.834 94.1938C252.834 96.5141 251.665 98.5203 248.472 98.5203H246.536V89.8673H248.472Z" fill="black" fill-opacity="0.75"/>
<path d="M257.644 100.195H266.21V98.5203H259.615V94.8917H264.779V93.2692H259.615V89.8673H266.053V88.1926H257.644V100.195Z" fill="black" fill-opacity="0.75"/>
<path d="M268.547 96.7758C268.547 98.9739 270.239 100.404 273.292 100.404C276.397 100.404 278.177 98.9041 278.177 96.6885C278.177 91.9085 270.71 94.2985 270.71 91.3502C270.71 90.1465 271.844 89.5184 273.31 89.5184C274.775 89.5184 275.874 90.1988 275.874 91.42H277.81C277.81 89.2916 275.996 87.9832 273.31 87.9832C270.518 87.9832 268.739 89.4835 268.739 91.5421C268.739 96.235 276.153 93.8798 276.153 96.8456C276.153 98.1191 275.089 98.8692 273.292 98.8692C271.565 98.8692 270.501 98.0144 270.501 96.7758H268.547Z" fill="black" fill-opacity="0.75"/>
<path d="M281.094 100.195H283.065V88.1926H281.094V100.195Z" fill="black" fill-opacity="0.75"/>
<path d="M295.892 100.195H297.165V93.7751H291.879V95.3627H295.403V95.572C295.403 97.5085 293.781 98.6599 291.827 98.6599C289.489 98.6599 287.884 96.8107 287.884 94.1938C287.884 91.577 289.454 89.7278 291.879 89.7278C293.781 89.7278 294.827 90.6873 295.176 91.8038H297.183C296.729 89.658 294.827 87.9832 291.879 87.9832C288.268 87.9832 285.843 90.6001 285.843 94.1938C285.843 97.7527 288.233 100.404 291.774 100.404C293.554 100.404 294.775 99.8113 295.578 98.6076H295.63L295.892 100.195Z" fill="black" fill-opacity="0.75"/>
<path d="M300.438 100.195H302.409L302.339 91.577H302.409L308.759 100.195H310.574V88.1926H308.585L308.655 96.8456H308.585L302.27 88.1926H300.438V100.195Z" fill="black" fill-opacity="0.75"/>
</svg>
